<mxfile host="app.diagrams.net" agent="Mozilla/5.0 (Windows NT 10.0; Win64; x64) AppleWebKit/537.36 (KHTML, like Gecko) Chrome/135.0.0.0 Safari/537.36" version="26.2.14">
  <diagram name="Page-1" id="QIEHQ9P4s2FlTNxUHukT">
    <mxGraphModel dx="2081" dy="929" grid="0" gridSize="10" guides="1" tooltips="1" connect="1" arrows="1" fold="1" page="1" pageScale="1" pageWidth="827" pageHeight="1169" math="0" shadow="0">
      <root>
        <mxCell id="0" />
        <mxCell id="1" parent="0" />
        <mxCell id="FWAWrkWRwMSGX0GFrVUf-1" value="Exhibit" style="swimlane;fontStyle=1;align=center;verticalAlign=top;childLayout=stackLayout;horizontal=1;startSize=26;horizontalStack=0;resizeParent=1;resizeParentMax=0;resizeLast=0;collapsible=1;marginBottom=0;whiteSpace=wrap;html=1;" vertex="1" parent="1">
          <mxGeometry x="798" y="120" width="351" height="669" as="geometry" />
        </mxCell>
        <mxCell id="FWAWrkWRwMSGX0GFrVUf-2" value="-id: int&lt;br&gt;&lt;div&gt;-name: string&lt;/div&gt;&lt;div&gt;-category: string&lt;/div&gt;&lt;div&gt;-historicalInfo: TextBox&lt;/div&gt;&lt;div&gt;&lt;div&gt;-visitingAvailability: boolean&lt;/div&gt;&lt;div&gt;-coordinates: Coordinates&lt;/div&gt;&lt;div&gt;-offlineAvailable: boolean&lt;/div&gt;&lt;div&gt;-description: TextBox&lt;/div&gt;&lt;/div&gt;&lt;div&gt;&lt;span style=&quot;background-color: transparent; color: light-dark(rgb(0, 0, 0), rgb(255, 255, 255));&quot;&gt;-ratings: Map&amp;lt;User, int&amp;gt;&lt;/span&gt;&lt;/div&gt;&lt;div&gt;-favouredBy: List&amp;lt;User&amp;gt;&lt;/div&gt;&lt;div&gt;-wheelchairAccesible: boolean&lt;/div&gt;&lt;div&gt;-brailleSupport: boolean&lt;/div&gt;&lt;div&gt;-keywords: List&amp;lt;string&amp;gt;&lt;/div&gt;&lt;div&gt;&lt;br&gt;&lt;/div&gt;&lt;div&gt;&lt;br&gt;&lt;/div&gt;" style="text;strokeColor=none;fillColor=none;align=left;verticalAlign=top;spacingLeft=4;spacingRight=4;overflow=hidden;rotatable=0;points=[[0,0.5],[1,0.5]];portConstraint=eastwest;whiteSpace=wrap;html=1;" vertex="1" parent="FWAWrkWRwMSGX0GFrVUf-1">
          <mxGeometry y="26" width="351" height="192" as="geometry" />
        </mxCell>
        <mxCell id="FWAWrkWRwMSGX0GFrVUf-3" value="" style="line;strokeWidth=1;fillColor=none;align=left;verticalAlign=middle;spacingTop=-1;spacingLeft=3;spacingRight=3;rotatable=0;labelPosition=right;points=[];portConstraint=eastwest;strokeColor=inherit;" vertex="1" parent="FWAWrkWRwMSGX0GFrVUf-1">
          <mxGeometry y="218" width="351" height="34" as="geometry" />
        </mxCell>
        <mxCell id="FWAWrkWRwMSGX0GFrVUf-4" value="&lt;div&gt;+Exhibit(): void&lt;/div&gt;&lt;div&gt;+setId(id: Int): void&lt;/div&gt;&lt;div&gt;+getId(): int&lt;/div&gt;&lt;div&gt;+setName(name: string): void&lt;/div&gt;+getName(): string&lt;div&gt;&lt;div&gt;+setHistoricalInfo(HistoricalInfo: TextBox): void&lt;/div&gt;&lt;div&gt;+getHistoricalInfo(): string&lt;/div&gt;&lt;div&gt;+setVisitingAvailability(visitngAvailability: boolean): void&lt;/div&gt;&lt;div&gt;+getVisitingAvailability(): boolean&lt;/div&gt;&lt;/div&gt;&lt;div&gt;&lt;div&gt;+setCategory(category: string): void&lt;/div&gt;&lt;div&gt;+getCategory(): string&lt;/div&gt;&lt;div&gt;+setFavouredBy(favouredBy: List&amp;lt;User&amp;gt;): void&lt;/div&gt;&lt;div&gt;+getFavouredBy(): List&amp;lt;User&amp;gt;&lt;/div&gt;&lt;div&gt;+setCoordinates(coordinates: Coordinates): void&lt;/div&gt;&lt;div&gt;+getCoordinates(): Coordinates&lt;/div&gt;&lt;/div&gt;&lt;div&gt;+setWheelChairAccesible(w&lt;span style=&quot;background-color: transparent; color: light-dark(rgb(0, 0, 0), rgb(255, 255, 255));&quot;&gt;heelChairAccesible: boolean): void&lt;/span&gt;&lt;/div&gt;&lt;div&gt;&lt;span style=&quot;background-color: transparent; color: light-dark(rgb(0, 0, 0), rgb(255, 255, 255));&quot;&gt;+get&lt;/span&gt;&lt;span style=&quot;background-color: transparent; color: light-dark(rgb(0, 0, 0), rgb(255, 255, 255));&quot;&gt;WheelChairAccesible(): boolean&lt;/span&gt;&lt;/div&gt;&lt;div&gt;+setOfflineAvailable(o&lt;span style=&quot;background-color: transparent; color: light-dark(rgb(0, 0, 0), rgb(255, 255, 255));&quot;&gt;fflineAvailable: boolean): void&lt;/span&gt;&lt;/div&gt;&lt;div&gt;&lt;span style=&quot;background-color: transparent; color: light-dark(rgb(0, 0, 0), rgb(255, 255, 255));&quot;&gt;+getO&lt;/span&gt;&lt;span style=&quot;background-color: transparent; color: light-dark(rgb(0, 0, 0), rgb(255, 255, 255));&quot;&gt;fflineAvailable(): boolean&lt;/span&gt;&lt;/div&gt;&lt;div&gt;&lt;span style=&quot;background-color: transparent; color: light-dark(rgb(0, 0, 0), rgb(255, 255, 255));&quot;&gt;+setBrailleSupport(b&lt;/span&gt;&lt;span style=&quot;background-color: transparent; color: light-dark(rgb(0, 0, 0), rgb(255, 255, 255));&quot;&gt;railleSupport: boolean): void&lt;/span&gt;&lt;/div&gt;&lt;div&gt;&lt;span style=&quot;background-color: transparent; color: light-dark(rgb(0, 0, 0), rgb(255, 255, 255));&quot;&gt;+getB&lt;/span&gt;&lt;span style=&quot;background-color: transparent; color: light-dark(rgb(0, 0, 0), rgb(255, 255, 255));&quot;&gt;railleSupport(): boolean&lt;/span&gt;&lt;/div&gt;&lt;div&gt;&lt;span style=&quot;background-color: transparent; color: light-dark(rgb(0, 0, 0), rgb(255, 255, 255));&quot;&gt;+setRatings(ratings: Map&amp;lt;User, int&amp;gt;): void&lt;/span&gt;&lt;/div&gt;&lt;div&gt;&lt;span style=&quot;background-color: transparent; color: light-dark(rgb(0, 0, 0), rgb(255, 255, 255));&quot;&gt;+getRatings():&amp;nbsp;&lt;/span&gt;&lt;span style=&quot;background-color: transparent; color: light-dark(rgb(0, 0, 0), rgb(255, 255, 255));&quot;&gt;Map&amp;lt;User, int&amp;gt;&lt;/span&gt;&lt;/div&gt;&lt;div&gt;&lt;span style=&quot;background-color: transparent; color: light-dark(rgb(0, 0, 0), rgb(255, 255, 255));&quot;&gt;+setKeywords(keywords: List&amp;lt;string&amp;gt;): void&lt;/span&gt;&lt;/div&gt;&lt;div&gt;&lt;span style=&quot;background-color: transparent; color: light-dark(rgb(0, 0, 0), rgb(255, 255, 255));&quot;&gt;+getKeywords():&amp;nbsp;&lt;/span&gt;&lt;span style=&quot;background-color: transparent; color: light-dark(rgb(0, 0, 0), rgb(255, 255, 255));&quot;&gt;List&amp;lt;string&amp;gt;&lt;/span&gt;&lt;/div&gt;&lt;div&gt;&lt;span style=&quot;background-color: transparent; color: light-dark(rgb(0, 0, 0), rgb(255, 255, 255));&quot;&gt;+setDescription(description: TextBox): void&lt;/span&gt;&lt;/div&gt;&lt;div&gt;&lt;span style=&quot;background-color: transparent; color: light-dark(rgb(0, 0, 0), rgb(255, 255, 255));&quot;&gt;+getDescription(): TextBox&lt;/span&gt;&lt;/div&gt;" style="text;strokeColor=none;fillColor=none;align=left;verticalAlign=top;spacingLeft=4;spacingRight=4;overflow=hidden;rotatable=0;points=[[0,0.5],[1,0.5]];portConstraint=eastwest;whiteSpace=wrap;html=1;" vertex="1" parent="FWAWrkWRwMSGX0GFrVUf-1">
          <mxGeometry y="252" width="351" height="417" as="geometry" />
        </mxCell>
        <mxCell id="FWAWrkWRwMSGX0GFrVUf-5" value="ExhibitGUI" style="swimlane;fontStyle=1;align=center;verticalAlign=top;childLayout=stackLayout;horizontal=1;startSize=26;horizontalStack=0;resizeParent=1;resizeParentMax=0;resizeLast=0;collapsible=1;marginBottom=0;whiteSpace=wrap;html=1;" vertex="1" parent="1">
          <mxGeometry x="46" y="252" width="268" height="324" as="geometry" />
        </mxCell>
        <mxCell id="FWAWrkWRwMSGX0GFrVUf-6" value="-imgSelectedExhibit: Image&lt;div&gt;-lblTrafficDetails: string&lt;/div&gt;&lt;div&gt;-lblExhibitName: string&lt;/div&gt;&lt;div&gt;-lblHistoricalInfo: string&lt;/div&gt;&lt;div&gt;-lblAccessibilityDetails: string&lt;/div&gt;&lt;div&gt;-lblAudioDetails: string&lt;br&gt;&lt;div&gt;-btnAddFavourites: Button&lt;/div&gt;&lt;div&gt;-btnNavigate: Button&lt;/div&gt;&lt;div&gt;-btnMoreDetails: Button&lt;/div&gt;&lt;/div&gt;&lt;div&gt;-ratingStars: Image&lt;/div&gt;&lt;div&gt;-btnrating: Button&lt;/div&gt;&lt;div&gt;-accesibilityIcon: Image&lt;/div&gt;&lt;div&gt;-audioIcon: Image&lt;/div&gt;&lt;div&gt;-trafficIcon: Image&lt;/div&gt;" style="text;strokeColor=none;fillColor=none;align=left;verticalAlign=top;spacingLeft=4;spacingRight=4;overflow=hidden;rotatable=0;points=[[0,0.5],[1,0.5]];portConstraint=eastwest;whiteSpace=wrap;html=1;" vertex="1" parent="FWAWrkWRwMSGX0GFrVUf-5">
          <mxGeometry y="26" width="268" height="174" as="geometry" />
        </mxCell>
        <mxCell id="FWAWrkWRwMSGX0GFrVUf-7" value="" style="line;strokeWidth=1;fillColor=none;align=left;verticalAlign=middle;spacingTop=-1;spacingLeft=3;spacingRight=3;rotatable=0;labelPosition=right;points=[];portConstraint=eastwest;strokeColor=inherit;" vertex="1" parent="FWAWrkWRwMSGX0GFrVUf-5">
          <mxGeometry y="200" width="268" height="37" as="geometry" />
        </mxCell>
        <mxCell id="FWAWrkWRwMSGX0GFrVUf-8" value="+ExhibitGUI():void&lt;div&gt;+navigatePress():void&lt;/div&gt;&lt;div&gt;+moreDetailsPress():void&lt;/div&gt;&lt;div&gt;+addFavouritesPress():void&lt;/div&gt;&lt;div&gt;+ratingPress():&lt;/div&gt;" style="text;strokeColor=none;fillColor=none;align=left;verticalAlign=top;spacingLeft=4;spacingRight=4;overflow=hidden;rotatable=0;points=[[0,0.5],[1,0.5]];portConstraint=eastwest;whiteSpace=wrap;html=1;" vertex="1" parent="FWAWrkWRwMSGX0GFrVUf-5">
          <mxGeometry y="237" width="268" height="87" as="geometry" />
        </mxCell>
        <mxCell id="FWAWrkWRwMSGX0GFrVUf-9" value="ExhibitMoreDetailsGUI" style="swimlane;fontStyle=1;align=center;verticalAlign=top;childLayout=stackLayout;horizontal=1;startSize=26;horizontalStack=0;resizeParent=1;resizeParentMax=0;resizeLast=0;collapsible=1;marginBottom=0;whiteSpace=wrap;html=1;" vertex="1" parent="1">
          <mxGeometry x="430" y="331" width="268" height="233" as="geometry" />
        </mxCell>
        <mxCell id="FWAWrkWRwMSGX0GFrVUf-10" value="-imgSelectedExhibit: Image&lt;div&gt;-lblExhibitName: string&lt;/div&gt;&lt;div&gt;-lblHistoricalInfo: string&lt;/div&gt;&lt;div&gt;-txtExhibitDescription: TextBox&lt;/div&gt;&lt;div&gt;-btnAudio: Button&lt;/div&gt;&lt;div&gt;-swipeIcon: Image&lt;/div&gt;" style="text;strokeColor=none;fillColor=none;align=left;verticalAlign=top;spacingLeft=4;spacingRight=4;overflow=hidden;rotatable=0;points=[[0,0.5],[1,0.5]];portConstraint=eastwest;whiteSpace=wrap;html=1;" vertex="1" parent="FWAWrkWRwMSGX0GFrVUf-9">
          <mxGeometry y="26" width="268" height="112" as="geometry" />
        </mxCell>
        <mxCell id="FWAWrkWRwMSGX0GFrVUf-11" value="" style="line;strokeWidth=1;fillColor=none;align=left;verticalAlign=middle;spacingTop=-1;spacingLeft=3;spacingRight=3;rotatable=0;labelPosition=right;points=[];portConstraint=eastwest;strokeColor=inherit;" vertex="1" parent="FWAWrkWRwMSGX0GFrVUf-9">
          <mxGeometry y="138" width="268" height="8" as="geometry" />
        </mxCell>
        <mxCell id="FWAWrkWRwMSGX0GFrVUf-12" value="+ExhibitMoreDetailsGUI():void&lt;div&gt;+audioPress():void&lt;/div&gt;&lt;div&gt;+nextPageSwipe():void&lt;/div&gt;" style="text;strokeColor=none;fillColor=none;align=left;verticalAlign=top;spacingLeft=4;spacingRight=4;overflow=hidden;rotatable=0;points=[[0,0.5],[1,0.5]];portConstraint=eastwest;whiteSpace=wrap;html=1;" vertex="1" parent="FWAWrkWRwMSGX0GFrVUf-9">
          <mxGeometry y="146" width="268" height="87" as="geometry" />
        </mxCell>
        <mxCell id="FWAWrkWRwMSGX0GFrVUf-13" value="User" style="swimlane;fontStyle=1;align=center;verticalAlign=top;childLayout=stackLayout;horizontal=1;startSize=26;horizontalStack=0;resizeParent=1;resizeParentMax=0;resizeLast=0;collapsible=1;marginBottom=0;whiteSpace=wrap;html=1;" vertex="1" parent="1">
          <mxGeometry x="1246" y="248" width="336" height="321" as="geometry" />
        </mxCell>
        <mxCell id="FWAWrkWRwMSGX0GFrVUf-14" value="&lt;div&gt;-id: int&lt;/div&gt;-name: string&lt;div&gt;-ratings: Map&amp;lt;Exhibit, int&amp;gt;&lt;/div&gt;&lt;div&gt;-favourites: List&amp;lt;Exhibit&amp;gt;&lt;/div&gt;&lt;div&gt;-personalizationAvailable: Boolean&lt;/div&gt;&lt;div&gt;-preferences: List&amp;lt;string&amp;gt;&lt;/div&gt;&lt;div&gt;&lt;br&gt;&lt;/div&gt;&lt;div&gt;&lt;br&gt;&lt;/div&gt;" style="text;strokeColor=none;fillColor=none;align=left;verticalAlign=top;spacingLeft=4;spacingRight=4;overflow=hidden;rotatable=0;points=[[0,0.5],[1,0.5]];portConstraint=eastwest;whiteSpace=wrap;html=1;" vertex="1" parent="FWAWrkWRwMSGX0GFrVUf-13">
          <mxGeometry y="26" width="336" height="111" as="geometry" />
        </mxCell>
        <mxCell id="FWAWrkWRwMSGX0GFrVUf-15" value="" style="line;strokeWidth=1;fillColor=none;align=left;verticalAlign=middle;spacingTop=-1;spacingLeft=3;spacingRight=3;rotatable=0;labelPosition=right;points=[];portConstraint=eastwest;strokeColor=inherit;" vertex="1" parent="FWAWrkWRwMSGX0GFrVUf-13">
          <mxGeometry y="137" width="336" height="8" as="geometry" />
        </mxCell>
        <mxCell id="FWAWrkWRwMSGX0GFrVUf-16" value="&lt;div&gt;&lt;div&gt;+User():void&lt;/div&gt;&lt;div&gt;+setName(name: string): void&lt;/div&gt;&lt;div&gt;+getName(): string&lt;/div&gt;&lt;/div&gt;&lt;div&gt;+setId(id: int): void&lt;/div&gt;&lt;div&gt;+getId(): int&lt;/div&gt;+addToFavourites(exhibit:Exhibit): void&lt;div&gt;+removeFromFavourites(exhibit: Exhibit): void&lt;/div&gt;&lt;div&gt;+rateExhibit(exhibit: Exhibit, value: Int): void&lt;/div&gt;&lt;div&gt;+searchExhibit(title: String): list&amp;lt;Exhibit&amp;gt;&lt;/div&gt;&lt;div&gt;+modifyRating(rating:Rating, new_rating: int): void&lt;/div&gt;&lt;div&gt;+deleteRating(rating: Rating):void&lt;/div&gt;&lt;div&gt;&lt;br&gt;&lt;/div&gt;&lt;div&gt;&lt;br&gt;&lt;/div&gt;" style="text;strokeColor=none;fillColor=none;align=left;verticalAlign=top;spacingLeft=4;spacingRight=4;overflow=hidden;rotatable=0;points=[[0,0.5],[1,0.5]];portConstraint=eastwest;whiteSpace=wrap;html=1;" vertex="1" parent="FWAWrkWRwMSGX0GFrVUf-13">
          <mxGeometry y="145" width="336" height="176" as="geometry" />
        </mxCell>
        <mxCell id="FWAWrkWRwMSGX0GFrVUf-17" value="ExhibitController" style="swimlane;fontStyle=1;align=center;verticalAlign=top;childLayout=stackLayout;horizontal=1;startSize=26;horizontalStack=0;resizeParent=1;resizeParentMax=0;resizeLast=0;collapsible=1;marginBottom=0;whiteSpace=wrap;html=1;" vertex="1" parent="1">
          <mxGeometry x="364.5" y="73" width="367" height="143" as="geometry" />
        </mxCell>
        <mxCell id="FWAWrkWRwMSGX0GFrVUf-19" value="" style="line;strokeWidth=1;fillColor=none;align=left;verticalAlign=middle;spacingTop=-1;spacingLeft=3;spacingRight=3;rotatable=0;labelPosition=right;points=[];portConstraint=eastwest;strokeColor=inherit;" vertex="1" parent="FWAWrkWRwMSGX0GFrVUf-17">
          <mxGeometry y="26" width="367" height="37" as="geometry" />
        </mxCell>
        <mxCell id="FWAWrkWRwMSGX0GFrVUf-20" value="+exhibitController(): void&lt;br&gt;&lt;div&gt;+addNewRating(rating: int): float&lt;/div&gt;&lt;div&gt;+evaluateTraffic(): (enum: LOW, MEDIUM HIGH)&lt;/div&gt;&lt;div&gt;+playAudio(url: string): void&lt;/div&gt;&lt;div&gt;&lt;br&gt;&lt;/div&gt;&lt;div&gt;&lt;br&gt;&lt;/div&gt;" style="text;strokeColor=none;fillColor=none;align=left;verticalAlign=top;spacingLeft=4;spacingRight=4;overflow=hidden;rotatable=0;points=[[0,0.5],[1,0.5]];portConstraint=eastwest;whiteSpace=wrap;html=1;" vertex="1" parent="FWAWrkWRwMSGX0GFrVUf-17">
          <mxGeometry y="63" width="367" height="80" as="geometry" />
        </mxCell>
        <mxCell id="FWAWrkWRwMSGX0GFrVUf-23" value="&lt;p style=&quot;margin:0px;margin-top:4px;text-align:center;&quot;&gt;&lt;i&gt;&amp;lt;&amp;lt;Controller&amp;gt;&amp;gt;&lt;/i&gt;&lt;br&gt;&lt;b&gt;Search&lt;/b&gt;&lt;/p&gt;&lt;hr size=&quot;1&quot; style=&quot;border-style:solid;&quot;&gt;&lt;p style=&quot;margin:0px;margin-left:4px;&quot;&gt;&lt;br&gt;&lt;/p&gt;&lt;hr size=&quot;1&quot; style=&quot;border-style:solid;&quot;&gt;&lt;p style=&quot;margin:0px;margin-left:4px;&quot;&gt;+Search(): void&lt;/p&gt;&lt;p style=&quot;margin:0px;margin-left:4px;&quot;&gt;+searchExhibits(keyword: String): List&amp;lt;Exhibit&amp;gt;&lt;/p&gt;&lt;div&gt;&amp;nbsp;+filterExhibitsByCategory(category: string): List&amp;lt;Exhibit&amp;gt;&lt;/div&gt;" style="verticalAlign=top;align=left;overflow=fill;html=1;whiteSpace=wrap;" vertex="1" parent="1">
          <mxGeometry x="46" y="682" width="349" height="140" as="geometry" />
        </mxCell>
        <mxCell id="FWAWrkWRwMSGX0GFrVUf-24" value="&lt;p style=&quot;margin:0px;margin-top:4px;text-align:center;&quot;&gt;&lt;i&gt;&amp;lt;&amp;lt;Boundary&amp;gt;&amp;gt;&lt;/i&gt;&lt;br&gt;&lt;b&gt;SearchGUI&lt;/b&gt;&lt;/p&gt;&lt;hr size=&quot;1&quot; style=&quot;border-style:solid;&quot;&gt;&lt;p style=&quot;margin:0px;margin-left:4px;&quot;&gt;-btnsearchBar: Button&lt;/p&gt;&lt;p style=&quot;margin:0px;margin-left:4px;&quot;&gt;-lblCategory: string&lt;/p&gt;&lt;p style=&quot;margin:0px;margin-left:4px;&quot;&gt;-btnChooseByCategory: Button&lt;/p&gt;&lt;p style=&quot;margin:0px;margin-left:4px;&quot;&gt;-btnExhibit: Button&lt;/p&gt;&lt;hr size=&quot;1&quot; style=&quot;border-style:solid;&quot;&gt;&lt;p style=&quot;margin:0px;margin-left:4px;&quot;&gt;+SearchGUI(): void&lt;/p&gt;&lt;p style=&quot;margin:0px;margin-left:4px;&quot;&gt;+searchBarPress(): void&lt;br&gt;&lt;/p&gt;&lt;p style=&quot;margin:0px;margin-left:4px;&quot;&gt;+chooseByCategoryPress(): void&lt;/p&gt;&lt;p style=&quot;margin:0px;margin-left:4px;&quot;&gt;+exhibitPress(): void&lt;/p&gt;" style="verticalAlign=top;align=left;overflow=fill;html=1;whiteSpace=wrap;" vertex="1" parent="1">
          <mxGeometry x="473" y="647" width="235" height="179" as="geometry" />
        </mxCell>
      </root>
    </mxGraphModel>
  </diagram>
</mxfile>
